# xmcd
#
# Track frame offsets:
#	150
#	14215
#	29135
#	42000
#	53397
#	68952
#	87260
#	104127
#	120432
#	133457
#	148077
#	164717
#	176117
#	191555
#
# Disc length: 2734 seconds
#
# Revision: 1
# Processed by: cddbd v1.4PL0 Copyright (c) Steve Scherf et al.
# Submitted via: audiograbber 1.81.03
#
DISCID=d90aac0e
DTITLE=Diligence - Nysoft Kjøringsgolv
DYEAR=1900
DGENRE=
TTITLE0=Minstemænn
TTITLE1=Utgått sko
TTITLE2=Låvedæns
TTITLE3=Nashville Dreams
TTITLE4=Hyllest tæl hembygda
TTITLE5=Er dæ før seint
TTITLE6=Bry seg om
TTITLE7=Sorgløst liv
TTITLE8=Låven hass Birger
TTITLE9=Lite kvile
TTITLE10=MC-drøm
TTITLE11=Torpebussen
TTITLE12=Karibiske netter
TTITLE13=Hei du!
EXTD=
EXTT0=
EXTT1=
EXTT2=
EXTT3=
EXTT4=
EXTT5=
EXTT6=
EXTT7=
EXTT8=
EXTT9=
EXTT10=
EXTT11=
EXTT12=
EXTT13=
PLAYORDER=
